<svg xmlns="http://www.w3.org/2000/svg" viewBox="0 0 512 512" fill="none">
  <!-- Calendar body -->
  <rect x="48" y="96" width="416" height="376" rx="32" fill="#24283b" stroke="#3b3d57" stroke-width="12"/>

  <!-- Top bar -->
  <rect x="48" y="96" width="416" height="88" rx="32" fill="#7aa2f7"/>
  <rect x="48" y="152" width="416" height="32" fill="#7aa2f7"/>

  <!-- Binding rings -->
  <rect x="152" y="56" width="24" height="80" rx="12" fill="#bb9af7"/>
  <rect x="336" y="56" width="24" height="80" rx="12" fill="#bb9af7"/>

  <!-- Grid dots — row 1 -->
  <rect x="112" y="232" width="48" height="48" rx="10" fill="#3b3d57"/>
  <rect x="188" y="232" width="48" height="48" rx="10" fill="#3b3d57"/>
  <rect x="264" y="232" width="48" height="48" rx="10" fill="#bb9af7"/>
  <rect x="340" y="232" width="48" height="48" rx="10" fill="#3b3d57"/>

  <!-- Grid dots — row 2 -->
  <rect x="112" y="312" width="48" height="48" rx="10" fill="#3b3d57"/>
  <rect x="188" y="312" width="48" height="48" rx="10" fill="#7aa2f7"/>
  <rect x="264" y="312" width="48" height="48" rx="10" fill="#3b3d57"/>
  <rect x="340" y="312" width="48" height="48" rx="10" fill="#3b3d57"/>

  <!-- Grid dots — row 3 -->
  <rect x="112" y="392" width="48" height="48" rx="10" fill="#3b3d57"/>
  <rect x="188" y="392" width="48" height="48" rx="10" fill="#3b3d57"/>
  <rect x="264" y="392" width="48" height="48" rx="10" fill="#3b3d57"/>
  <rect x="340" y="392" width="48" height="48" rx="10" fill="#7aa2f7"/>
</svg>
